<svg xmlns="http://www.w3.org/2000/svg" xmlns:svg="http://www.w3.org/2000/svg" id="Слой_1" width="96" height="96" x="0" y="0" enable-background="new 0 0 48 48" version="1.1" viewBox="0 0 48 48" xml:space="preserve" style="fill:#34495e"><metadata id="metadata31"/><defs id="defs29"><filter style="color-interpolation-filters:sRGB" id="filter3689"><feColorMatrix id="feColorMatrix3691" values="1 0 0 0 0 0 1 0 0 0 0 0 1 0 0 0 0 0 1 0"/></filter><filter style="color-interpolation-filters:sRGB" id="filter3693"><feColorMatrix id="feColorMatrix3695" values="1 0 0 0 0 0 1 0 0 0 0 0 1 0 0 0 0 0 1 0"/></filter><filter style="color-interpolation-filters:sRGB" id="filter3697"><feColorMatrix id="feColorMatrix3699" values="1 0 0 0 0 0 1 0 0 0 0 0 1 0 0 0 0 0 1 0"/></filter></defs><g id="g3" transform="translate(0,9.1525425)" style="fill:#d82c20;fill-opacity:1;filter:url(#filter3689)"><path id="path9" fill="#455A64" d="m 42,19 c 0,2.209 -1.791,3 -4,3 H 10 C 7.791,22 6,21.209 6,19 L 9,7 C 9.61,5.338 10.791,4 13,4 h 22 c 2.209,0 3.201,1.087 4,3 z" style="fill:#d82c20;fill-opacity:1"/></g><g id="g11" transform="translate(0,9.1525425)" style="fill:#a41e11;fill-opacity:1;filter:url(#filter3693)"><path id="path13" fill="#78909C" d="M 38,22 H 10 C 7.791,22 6,21.209 6,19 v 6 c 0,2.209 1.791,3 4,3 h 28 c 2.209,0 4,-0.791 4,-3 v -6 c 0,2.209 -1.791,3 -4,3 z" style="fill:#a41e11;fill-opacity:1"/></g></svg>