<svg xmlns="http://www.w3.org/2000/svg" xmlns:xlink="http://www.w3.org/1999/xlink" id="Layer_1" x="0" y="0" version="1.1" viewBox="0 0 48 48" xml:space="preserve" style="enable-background:new 0 0 48 48"><polygon style="fill:#3498db" points="42 42 6 42 6 6 37 6 42 11"/><path style="fill:#fff" d="M39,39c0,0.553-0.447,1-1,1H10c-0.553,0-1-0.447-1-1V25c0-0.553,0.447-1,1-1h28c0.553,0,1,0.447,1,1 V39z"/><g><rect style="fill:#cfd8dc" width="22" height="2" x="13" y="31"/><rect style="fill:#cfd8dc" width="22" height="2" x="13" y="27"/><rect style="fill:#cfd8dc" width="22" height="2" x="13" y="35"/></g><path style="fill:#2980b9" d="M9,6v10c0,1.104,0.896,2,2,2h15c1.104,0,2-0.896,2-2V6H9z"/><path style="fill:#b0bec5" d="M15,6v10c0,1.104,0.896,2,2,2h15c1.104,0,2-0.896,2-2V6H15z"/><rect style="fill:#263238" width="4" height="8" x="26" y="8"/></svg>